<svg width="20" height="20" viewBox="0 0 20 20" fill="none" xmlns="http://www.w3.org/2000/svg">
<g clip-path="url(#clip0_107_964)">
<path d="M9.99979 0C7.35739 0.00770804 4.82606 1.0638 2.96169 2.93635C1.09731 4.8089 0.0523089 7.34482 0.056163 9.98723C0.060017 12.6296 1.11241 15.1625 2.98224 17.0296C4.85207 18.8967 7.38647 19.9454 10.0289 19.9454C12.6713 19.9454 15.2057 18.8967 17.0755 17.0296C18.9453 15.1625 19.9977 12.6296 20.0016 9.98723C20.0054 7.34482 18.9604 4.8089 17.0961 2.93635C15.2317 1.0638 12.7004 0.00770804 10.058 0L9.99979 0Z" fill="#345D9D"/>
<path d="M10.1818 10.2236L9.30089 13.1818H13.9882C14.0191 13.1802 14.0501 13.1852 14.0791 13.1963C14.108 13.2072 14.1345 13.2236 14.1572 13.2445C14.1798 13.266 14.198 13.2916 14.2109 13.32C14.2245 13.3484 14.232 13.3794 14.2327 13.4109V13.4881L13.8245 14.8945C13.807 14.9612 13.7669 15.0197 13.7109 15.06C13.6554 15.1006 13.5878 15.1212 13.5191 15.1182H6.34634L7.54816 11.0272L6.20361 11.4345L6.50907 10.4972L7.85361 10.0891L9.54543 4.33451C9.56375 4.26822 9.60416 4.21016 9.65998 4.16997C9.71517 4.12929 9.78235 4.10818 9.85089 4.10997H11.6691C11.7001 4.10917 11.731 4.11442 11.76 4.12542C11.7893 4.13607 11.8162 4.15245 11.8391 4.17361C11.862 4.19474 11.8803 4.22044 11.8927 4.24906C11.9057 4.27764 11.9129 4.30857 11.9136 4.33997V4.41815L10.4872 9.26815L11.8327 8.85997L11.5454 9.83633L10.1818 10.2236Z" fill="white"/>
</g>
<defs>
<clipPath id="clip0_107_964">
<rect width="20" height="20" fill="white"/>
</clipPath>
</defs>
</svg>
