<svg width="20" height="20" viewBox="0 0 20 20" fill="none" xmlns="http://www.w3.org/2000/svg">
<path fill-rule="evenodd" clip-rule="evenodd" d="M9.22088 0.961389C8.89113 1.14986 7.62749 1.87769 6.41276 2.57875C5.19804 3.27981 3.79759 4.08641 3.30066 4.37112C2.16799 5.02017 1.87947 5.22818 1.82104 5.43813C1.74876 5.69794 1.75123 14.0189 1.82365 13.9929C1.85792 13.9807 2.6328 13.1876 3.54561 12.2305C6.55659 9.0736 6.43779 9.18537 6.7824 9.18537C7.0748 9.18537 7.09582 9.20063 7.75097 9.88784L8.42057 10.5903L9.79257 8.90555C11.5738 6.71818 11.5179 6.776 11.851 6.776C12.0115 6.776 12.1746 6.82332 12.2548 6.89312C12.3288 6.95757 12.9434 7.68788 13.6205 8.5161C17.0058 12.6572 17.9842 13.8481 18.1012 13.9706C18.2272 14.1025 18.2288 14.0384 18.2105 9.73899L18.1919 5.37348L18.0246 5.20958C17.8907 5.0784 11.1414 1.13975 10.3431 0.726944C10.0203 0.560029 9.86713 0.59202 9.22088 0.961389ZM8.34762 4.90553C9.10697 5.18963 9.64078 6.05333 9.57961 6.89881C9.45653 8.6009 7.31996 9.36373 6.1573 8.1207C5.57664 7.49995 5.43991 6.70432 5.7785 5.9172C5.95786 5.50024 6.457 5.02379 6.86619 4.87889C7.28248 4.73145 7.91266 4.74283 8.34762 4.90553ZM10.5809 10.0341L9.33727 11.5552L10.3011 12.5756C11.2419 13.5715 11.265 13.603 11.265 13.8913C11.265 14.2963 11.0276 14.5404 10.6368 14.5374C10.4853 14.5362 10.3159 14.4986 10.2602 14.4537C10.2044 14.4089 9.60277 13.7849 8.92299 13.0671C8.24328 12.3493 7.4757 11.5463 7.21729 11.2826L6.7474 10.8032L4.70613 12.9457C3.58343 14.1242 2.65555 15.1132 2.64417 15.1437C2.62416 15.1972 3.11634 15.4962 5.17461 16.6812C6.28734 17.3218 7.27813 17.8946 8.63628 18.6825C9.80228 19.3589 9.93071 19.4113 10.186 19.3149C10.4047 19.2324 17.143 15.3635 17.2717 15.2465C17.3369 15.1873 17.1737 14.9496 16.5318 14.169C16.0789 13.6182 14.8565 12.1285 13.8152 10.8585C12.774 9.58861 11.9002 8.54133 11.8733 8.5313C11.8465 8.52126 11.2649 9.19748 10.5809 10.0341Z" fill="#1570EF"/>
</svg>
