<svg width="20" height="20" viewBox="0 0 20 20" fill="none" xmlns="http://www.w3.org/2000/svg">
<circle cx="10" cy="10" r="10" fill="black"/>
<g clip-path="url(#clip0_107_1066)">
<path d="M6.30353 12.1553C6.37519 12.0831 6.47373 12.041 6.57823 12.041H16.0555C16.2287 12.041 16.3153 12.2516 16.1929 12.3749L14.3207 14.2607C14.2491 14.3329 14.1505 14.375 14.046 14.375H4.56871C4.39553 14.375 4.30894 14.1645 4.43136 14.0411L6.30353 12.1553Z" fill="url(#paint0_linear_107_1066)"/>
<path d="M6.30353 5.11429C6.37818 5.04211 6.47671 5 6.57823 5H16.0555C16.2287 5 16.3153 5.21054 16.1929 5.33385L14.3207 7.21968C14.2491 7.29187 14.1505 7.33397 14.046 7.33397H4.56871C4.39553 7.33397 4.30894 7.12344 4.43136 7.00012L6.30353 5.11429Z" fill="url(#paint1_linear_107_1066)"/>
<path d="M14.3207 8.61234C14.2491 8.54015 14.1505 8.49805 14.046 8.49805H4.56871C4.39553 8.49805 4.30894 8.70859 4.43136 8.8319L6.30353 10.7177C6.37519 10.7899 6.47373 10.832 6.57823 10.832H16.0555C16.2287 10.832 16.3153 10.6215 16.1929 10.4982L14.3207 8.61234Z" fill="url(#paint2_linear_107_1066)"/>
</g>
<defs>
<linearGradient id="paint0_linear_107_1066" x1="15.1502" y1="3.87345" x2="8.5159" y2="16.4887" gradientUnits="userSpaceOnUse">
<stop stop-color="#00FFA3"/>
<stop offset="1" stop-color="#DC1FFF"/>
</linearGradient>
<linearGradient id="paint1_linear_107_1066" x1="12.2822" y1="2.36521" x2="5.64793" y2="14.9805" gradientUnits="userSpaceOnUse">
<stop stop-color="#00FFA3"/>
<stop offset="1" stop-color="#DC1FFF"/>
</linearGradient>
<linearGradient id="paint2_linear_107_1066" x1="13.7071" y1="3.11463" x2="7.07279" y2="15.7299" gradientUnits="userSpaceOnUse">
<stop stop-color="#00FFA3"/>
<stop offset="1" stop-color="#DC1FFF"/>
</linearGradient>
<clipPath id="clip0_107_1066">
<rect width="11.875" height="9.375" fill="white" transform="translate(4.375 5)"/>
</clipPath>
</defs>
</svg>
