<svg width="25" height="30" viewBox="0 0 25 30" fill="none" xmlns="http://www.w3.org/2000/svg">
<path d="M23.5666 10.2438C23.3932 10.3783 20.3311 12.1037 20.3311 15.9403C20.3311 20.3779 24.2275 21.9478 24.3441 21.9867C24.3261 22.0824 23.7251 24.1367 22.2897 26.2299C21.0099 28.072 19.6732 29.911 17.6398 29.911C15.6064 29.911 15.0831 28.7298 12.7357 28.7298C10.4481 28.7298 9.63477 29.9499 7.7748 29.9499C5.91483 29.9499 4.61703 28.2454 3.12487 26.1522C1.39647 23.6942 0 19.8755 0 16.2513C0 10.4381 3.77975 7.35512 7.49969 7.35512C9.47628 7.35512 11.1239 8.65292 12.3649 8.65292C13.5461 8.65292 15.3881 7.27737 17.6368 7.27737C18.4891 7.27737 21.5511 7.35512 23.5666 10.2438ZM16.5693 4.81635C17.4993 3.71293 18.1571 2.18189 18.1571 0.650856C18.1571 0.438544 18.1392 0.223242 18.1003 0.0498047C16.5872 0.106621 14.7871 1.05754 13.7016 2.31646C12.8493 3.28532 12.0539 4.81635 12.0539 6.36832C12.0539 6.60157 12.0928 6.83481 12.1107 6.90957C12.2064 6.92751 12.3619 6.94844 12.5174 6.94844C13.875 6.94844 15.5825 6.03939 16.5693 4.81635Z" fill="#98A2B3"/>
</svg>
