<svg width="20" height="20" viewBox="0 0 20 20" fill="none" xmlns="http://www.w3.org/2000/svg">
<path fill-rule="evenodd" clip-rule="evenodd" d="M2.42316 9.61908C6.6446 7.78577 9.45487 6.56758 10.866 5.97658C14.8824 4.30007 15.7267 4.0106 16.2695 3.99854C16.3901 3.99854 16.6554 4.02266 16.8364 4.16739C16.9811 4.28801 17.0173 4.4448 17.0414 4.56542C17.0655 4.68603 17.0897 4.93931 17.0655 5.13229C16.8484 7.42393 15.9077 12.9842 15.4252 15.5412C15.2202 16.6267 14.8221 16.9885 14.4362 17.0247C13.5919 17.0971 12.9526 16.4699 12.1445 15.9392C10.866 15.107 10.1544 14.5883 8.91212 13.7682C7.47683 12.8274 8.40554 12.3087 9.22571 11.4645C9.44281 11.2474 13.1456 7.8702 13.218 7.56867C13.2301 7.53249 13.2301 7.38775 13.1456 7.31538C13.0612 7.24302 12.9406 7.26714 12.8441 7.29126C12.7114 7.31538 10.6851 8.66624 6.74109 11.3318C6.16215 11.7298 5.64352 11.9228 5.17313 11.9107C4.65449 11.8987 3.66547 11.6213 2.91767 11.38C2.01308 11.0906 1.2894 10.9338 1.34971 10.4272C1.38589 10.1618 1.74773 9.89649 2.42316 9.61908Z" fill="#1570EF"/>
</svg>
