<svg width="137" height="32" viewBox="0 0 137 32" fill="none" xmlns="http://www.w3.org/2000/svg">
<path d="M15.0134 4.72834C15.0134 3.45228 14.8986 2.19372 14.7583 1.93141C14.5302 1.5054 14.2206 1.45462 11.8492 1.45462C10.1138 1.45462 9.09295 1.55693 8.89942 1.75046C8.71945 1.93043 8.60358 2.80513 8.60358 3.98159C8.60358 6.10745 8.28086 7.00778 7.21929 7.84279C6.67396 8.27152 6.22058 8.35756 4.50249 8.35756C1.64073 8.35756 1.4541 8.56144 1.4541 11.6858C1.4541 14.8313 1.62717 15.014 4.60406 15.014C7.61276 15.014 7.86398 14.8128 7.86398 12.4034C7.86398 10.4048 8.22367 9.25198 9.08826 8.48083C9.53621 8.08119 10.0675 7.97173 11.8958 7.9027C14.9323 7.78782 15.0134 7.70523 15.0134 4.72834Z" fill="#1570EF"/>
<path d="M23.3956 3.98159C23.3956 2.80513 23.2797 1.93043 23.0997 1.75046C22.9062 1.55693 21.8853 1.45462 20.15 1.45462C18.5645 1.45462 17.7733 1.44395 17.3785 1.83425C16.9749 2.23326 16.9857 3.05135 16.9857 4.72834C16.9857 7.70523 17.0668 7.78782 20.1034 7.9027C21.9317 7.97173 22.463 8.08119 22.9109 8.48083C23.7762 9.25297 24.1352 10.4053 24.1352 12.4118C24.1352 14.8791 24.4325 15.099 27.6012 14.977C30.46 14.867 30.5451 14.7704 30.5451 11.6387C30.5451 8.5676 30.3501 8.35756 27.4967 8.35756C25.7786 8.35756 25.3252 8.27152 24.7799 7.84279C23.7183 7.00778 23.3956 6.10745 23.3956 3.98159Z" fill="#1570EF"/>
<path d="M20.6837 16.0543C20.6837 12.698 20.6719 12.6236 20.0482 12.0368C19.4552 11.4792 19.2124 11.4358 16.4118 11.3872C13.1723 11.331 12.9532 11.369 12.1167 12.13C11.5923 12.6071 11.562 12.8218 11.562 16.0543C11.562 19.3564 11.5827 19.4947 12.1672 20.079C12.7503 20.6623 12.894 20.6842 16.1229 20.6842C19.3517 20.6842 19.4954 20.6623 20.0785 20.079C20.663 19.4947 20.6837 19.3564 20.6837 16.0543Z" fill="#1570EF"/>
<path d="M7.86496 19.5625C7.86422 18.3488 7.74909 17.463 7.56814 17.2821C7.37658 17.0905 6.3833 16.9862 4.7505 16.9862C1.4684 16.9862 1.4541 17 1.4541 20.1705C1.4541 23.2534 1.58008 23.3959 4.30871 23.3971C7.60733 23.3986 8.60358 24.4513 8.60358 27.935C8.60358 30.3358 8.8612 30.5456 11.8085 30.5456C14.8781 30.5456 15.0134 30.4117 15.0134 27.3737C15.0134 25.8242 14.904 24.8299 14.7053 24.5768C14.4787 24.2881 13.8321 24.1569 12.2663 24.0822C8.83556 23.9183 7.86644 22.9233 7.86496 19.5625Z" fill="#1570EF"/>
<path d="M30.5451 20.1278C30.5451 18.3049 30.4561 17.6721 30.1578 17.3735C29.6679 16.8837 24.9056 16.8075 24.431 17.2821C24.2501 17.463 24.1349 18.3488 24.1342 19.5625C24.1327 22.9233 23.1636 23.9183 19.7328 24.0822C18.1671 24.1569 17.5205 24.2881 17.2939 24.5768C17.0952 24.8299 16.9857 25.8242 16.9857 27.3737C16.9857 30.4117 17.1211 30.5456 20.1907 30.5456C23.1698 30.5456 23.3956 30.3526 23.3956 27.8076C23.3956 24.3904 24.3711 23.3986 27.7334 23.3971C30.4188 23.3959 30.5451 23.2492 30.5451 20.1278Z" fill="#1570EF"/>
<path d="M137 23.602V7.38481H133.499V23.602H137Z" fill="#1570EF"/>
<path d="M40 15.4934C40 17.2566 40.3342 18.7585 41.0025 19.9991C41.6762 21.2396 42.5924 22.1872 43.7511 22.8418C44.9153 23.4964 46.2357 23.8237 47.7124 23.8237C48.7742 23.8237 49.7254 23.668 50.5662 23.3565C51.4124 23.0398 52.14 22.6122 52.749 22.0737C53.3634 21.53 53.8511 20.915 54.2122 20.2287C54.5787 19.5371 54.8078 18.8192 54.8994 18.0749L51.3585 18.059C51.2776 18.4919 51.1321 18.8773 50.9219 19.2151C50.7171 19.553 50.4584 19.8407 50.1458 20.0782C49.8332 20.3105 49.4748 20.4874 49.0706 20.6088C48.6718 20.7302 48.2379 20.7909 47.769 20.7909C46.9337 20.7909 46.198 20.5903 45.562 20.1891C44.926 19.7879 44.4302 19.194 44.0745 18.4074C43.7242 17.6209 43.549 16.6495 43.549 15.4934C43.549 14.369 43.7242 13.4135 44.0745 12.6269C44.4248 11.835 44.918 11.2332 45.5539 10.8215C46.1899 10.4044 46.9364 10.1959 47.7933 10.1959C48.2676 10.1959 48.7068 10.2619 49.111 10.3939C49.5206 10.5258 49.8817 10.7159 50.1943 10.964C50.5069 11.2121 50.7629 11.513 50.9623 11.8667C51.1618 12.2151 51.2938 12.6137 51.3585 13.0624H54.8994C54.7862 12.1227 54.5275 11.2887 54.1233 10.5601C53.7245 9.83164 53.2071 9.21663 52.5711 8.71512C51.9352 8.20833 51.2049 7.82297 50.3803 7.55901C49.5611 7.29506 48.6718 7.16309 47.7124 7.16309C46.2573 7.16309 44.9476 7.49039 43.7835 8.14499C42.6193 8.79431 41.6977 9.73925 41.0186 10.9798C40.3395 12.2204 40 13.7249 40 15.4934Z" fill="#1570EF"/>
<path d="M56.5545 11.4391V23.602H59.9984V16.7208C59.9984 16.2245 60.1116 15.7864 60.3379 15.4063C60.5697 15.0262 60.8823 14.7306 61.2757 14.5194C61.6745 14.303 62.1272 14.1948 62.6339 14.1948C62.871 14.1948 63.1324 14.2132 63.418 14.2502C63.7037 14.2871 63.9274 14.3294 64.089 14.3769V11.3837C63.9381 11.3467 63.763 11.3177 63.5636 11.2966C63.3641 11.2755 63.1782 11.2649 63.0057 11.2649C62.3105 11.2649 61.6961 11.4602 61.1625 11.8509C60.629 12.2362 60.249 12.8064 60.0226 13.5613H59.8933V11.4391H56.5545Z" fill="#1570EF"/>
<path d="M67.5833 28.1631C67.1467 28.1631 66.7371 28.1288 66.3545 28.0601C65.9772 27.9968 65.6646 27.915 65.4167 27.8147L66.1928 25.2966C66.597 25.418 66.9608 25.484 67.2841 25.4945C67.6129 25.5051 67.8959 25.4312 68.133 25.2728C68.3755 25.1144 68.5723 24.8452 68.7232 24.4651L68.9253 23.9504L64.4708 11.4391H68.0926L70.6634 20.3712H70.7927L73.3878 11.4391H77.0338L72.2075 24.9165C71.9757 25.5711 71.6605 26.1412 71.2616 26.6269C70.8682 27.1178 70.3697 27.4953 69.766 27.7592C69.1624 28.0285 68.4348 28.1631 67.5833 28.1631Z" fill="#1570EF"/>
<path fill-rule="evenodd" clip-rule="evenodd" d="M78.0058 11.4391V28.1631H81.4497V21.654H81.5548C81.7111 21.9919 81.9374 22.3271 82.2339 22.6597C82.5303 22.987 82.9102 23.2589 83.3737 23.4753C83.8426 23.6917 84.4112 23.8 85.0795 23.8C86.0227 23.8 86.8743 23.5624 87.6342 23.0873C88.3995 22.6069 89.0031 21.9022 89.4451 20.973C89.8924 20.0387 90.1161 18.8931 90.1161 17.5364C90.1161 16.1427 89.887 14.984 89.4289 14.0601C88.9708 13.131 88.3591 12.4368 87.5938 11.9776C86.8285 11.513 85.9931 11.2807 85.0876 11.2807C84.3924 11.2807 83.8103 11.3969 83.3414 11.6291C82.8779 11.8561 82.5006 12.1412 82.2096 12.4844C81.924 12.8222 81.7057 13.1548 81.5548 13.4821H81.4012V11.4391H78.0058ZM81.6841 19.4131C81.4793 18.8746 81.3769 18.2438 81.3769 17.5206C81.3769 16.7973 81.4793 16.1691 81.6841 15.6359C81.8889 15.1028 82.1827 14.691 82.5653 14.4006C82.9534 14.1103 83.4276 13.9651 83.9882 13.9651C84.5541 13.9651 85.031 14.1156 85.4191 14.4165C85.8071 14.7174 86.1009 15.1344 86.3003 15.6676C86.4997 16.2008 86.5994 16.8184 86.5994 17.5206C86.5994 18.2279 86.497 18.8535 86.2922 19.3972C86.0928 19.9357 85.799 20.358 85.411 20.6642C85.023 20.9651 84.5487 21.1156 83.9882 21.1156C83.433 21.1156 82.9614 20.9678 82.5734 20.6721C82.1854 20.3712 81.8889 19.9515 81.6841 19.4131Z" fill="#1570EF"/>
<path d="M98.2265 11.4391V13.973H95.8901V19.8644C95.8901 20.1759 95.9386 20.4187 96.0356 20.5929C96.1326 20.7619 96.2673 20.8807 96.4398 20.9493C96.6177 21.0179 96.8225 21.0522 97.0542 21.0522C97.2159 21.0522 97.3776 21.039 97.5393 21.0126C97.701 20.981 97.8249 20.9572 97.9112 20.9414L98.4528 23.4515C98.2803 23.5043 98.0378 23.565 97.7252 23.6337C97.4126 23.7076 97.0327 23.7525 96.5853 23.7683C95.7553 23.8 95.0278 23.6917 94.4026 23.4436C93.7828 23.1955 93.3004 22.8101 92.9555 22.2875C92.6105 21.7649 92.4408 21.105 92.4462 20.3079V13.973H90.7484V11.4391H92.4462V8.52508H95.8901V11.4391H98.2265Z" fill="#1570EF"/>
<path fill-rule="evenodd" clip-rule="evenodd" d="M101.899 23.0556C102.815 23.5782 103.901 23.8396 105.157 23.8396C106.412 23.8396 107.496 23.5782 108.406 23.0556C109.323 22.5277 110.029 21.7939 110.525 20.8543C111.02 19.9093 111.268 18.8139 111.268 17.5681C111.268 16.3117 111.02 15.2136 110.525 14.2739C110.029 13.329 109.323 12.5952 108.406 12.0726C107.496 11.5447 106.412 11.2807 105.157 11.2807C103.901 11.2807 102.815 11.5447 101.899 12.0726C100.988 12.5952 100.284 13.329 99.7885 14.2739C99.2927 15.2136 99.0448 16.3117 99.0448 17.5681C99.0448 18.8139 99.2927 19.9093 99.7885 20.8543C100.284 21.7939 100.988 22.5277 101.899 23.0556ZM106.604 20.7513C106.221 21.0681 105.744 21.2264 105.173 21.2264C104.596 21.2264 104.111 21.0681 103.718 20.7513C103.329 20.4293 103.036 19.9911 102.836 19.4368C102.642 18.8825 102.545 18.2517 102.545 17.5443C102.545 16.8369 102.642 16.2061 102.836 15.6518C103.036 15.0975 103.329 14.6593 103.718 14.3373C104.111 14.0153 104.596 13.8543 105.173 13.8543C105.744 13.8543 106.221 14.0153 106.604 14.3373C106.986 14.6593 107.275 15.0975 107.469 15.6518C107.668 16.2061 107.768 16.8369 107.768 17.5443C107.768 18.2517 107.668 18.8825 107.469 19.4368C107.275 19.9911 106.986 20.4293 106.604 20.7513Z" fill="#1570EF"/>
<path fill-rule="evenodd" clip-rule="evenodd" d="M120.114 23.602H116.363L122.079 7.38481H126.59L132.297 23.602H128.546L127.32 19.904H121.342L120.114 23.602ZM124.399 11.0907L126.433 17.2276H122.231L124.269 11.0907H124.399Z" fill="#1570EF"/>
</svg>
