<svg width="708" height="360" viewBox="0 0 708 360" fill="none" xmlns="http://www.w3.org/2000/svg">
<g clip-path="url(#clip0_105_2055)">
<mask id="mask0_105_2055" style="mask-type:luminance" maskUnits="userSpaceOnUse" x="0" y="-1" width="708" height="361">
<path d="M708 -0.30957H0V360H708V-0.30957Z" fill="white"/>
</mask>
<g mask="url(#mask0_105_2055)">
<path d="M108 -2.30957V455.69" stroke="#4B8BFF" stroke-miterlimit="10"/>
<path d="M348 231.69H708" stroke="#4B8BFF" stroke-miterlimit="10"/>
<path d="M348 311.69H708" stroke="#4B8BFF" stroke-miterlimit="10"/>
<path d="M348 271.69H708" stroke="#4B8BFF" stroke-miterlimit="10"/>
<path d="M348 191.69H708" stroke="#4B8BFF" stroke-miterlimit="10"/>
<path d="M348 191.75V397.69" stroke="#4B8BFF" stroke-miterlimit="10"/>
<path d="M468 191.75V397.69" stroke="#4B8BFF" stroke-miterlimit="10"/>
<path d="M588 191.75V397.69" stroke="#4B8BFF" stroke-miterlimit="10"/>
<path d="M588 -2.30957V191.69" stroke="#4B8BFF" stroke-miterlimit="10"/>
<path d="M293 243.19C293 186.581 246.885 140.69 190 140.69C133.115 140.69 87 186.581 87 243.19C87 299.799 133.115 345.69 190 345.69C246.885 345.69 293 299.799 293 243.19Z" fill="#266DF0" stroke="#6B9FFF" stroke-width="0.8" stroke-miterlimit="10"/>
<path d="M415 323.606H262C248.745 323.606 238 334.352 238 347.606V387.606C238 400.861 248.745 411.606 262 411.606H415C428.255 411.606 439 400.861 439 387.606V347.606C439 334.352 428.255 323.606 415 323.606Z" fill="#266DF0" stroke="#6B9FFF" stroke-width="0.8" stroke-miterlimit="10"/>
<path d="M243.855 20.8231L174.147 47.2554C167.632 49.726 164.353 57.0106 166.823 63.526L193.255 133.233C195.726 139.749 203.011 143.028 209.526 140.557L279.234 114.125C285.749 111.654 289.028 104.37 286.557 97.8543L260.125 28.147C257.655 21.6315 250.37 18.3525 243.855 20.8231Z" fill="#266DF0" stroke="#6B9FFF" stroke-width="0.8" stroke-miterlimit="10"/>
<path d="M674.823 50.0836C679.626 50.0836 683.52 46.19 683.52 41.387C683.52 36.584 679.626 32.6904 674.823 32.6904C670.02 32.6904 666.127 36.584 666.127 41.387C666.127 46.19 670.02 50.0836 674.823 50.0836Z" fill="#266DF0" stroke="#6B9FFF" stroke-width="0.8" stroke-miterlimit="10"/>
<path d="M646.259 50.0836C651.062 50.0836 654.956 46.19 654.956 41.387C654.956 36.584 651.062 32.6904 646.259 32.6904C641.456 32.6904 637.562 36.584 637.562 41.387C637.562 46.19 641.456 50.0836 646.259 50.0836Z" fill="#266DF0" stroke="#6B9FFF" stroke-width="0.8" stroke-miterlimit="10"/>
<path d="M617.697 50.0836C622.5 50.0836 626.393 46.19 626.393 41.387C626.393 36.584 622.5 32.6904 617.697 32.6904C612.894 32.6904 609 36.584 609 41.387C609 46.19 612.894 50.0836 617.697 50.0836Z" fill="#266DF0" stroke="#6B9FFF" stroke-width="0.8" stroke-miterlimit="10"/>
<path d="M233.731 60.4326C233.782 51.3434 242.722 43.622 252.643 46.7014L466.069 113.74C473.596 116.086 476.526 123.61 474.72 129.915L466.852 181.316C465.777 188.011 461.232 193.63 454.93 196.073L422.192 208.775L381.491 224.559C378.753 225.635 376.605 227.688 375.384 230.325L347.726 291.108C340.739 303.813 322.466 303.716 315.576 290.962L235.393 119.799C232.951 114.621 231.827 108.903 232.022 103.186L233.731 60.4326Z" fill="#266DF0" stroke="#8FB7FF" stroke-width="4.87498" stroke-miterlimit="10" stroke-linejoin="round"/>
<path d="M377.485 172.372L350.513 221.236C343.525 233.941 325.25 233.843 318.362 221.09L235.49 67.4684C229.286 55.9851 240.181 42.7929 252.642 46.701L466.071 113.74C478.091 117.502 478.335 134.456 466.413 138.611L383.592 167.243C381.003 168.123 378.804 169.978 377.436 172.424L377.485 172.372Z" fill="#266DF0" stroke="#8FB7FF" stroke-width="4.87498" stroke-miterlimit="10" stroke-linejoin="round"/>
<path d="M376.895 227.928L381.196 168.366" stroke="#8FB7FF" stroke-width="2.70832" stroke-miterlimit="10" stroke-linejoin="round"/>
<path d="M347.775 291.057L356.228 210.533" stroke="#8FB7FF" stroke-width="2.70832" stroke-miterlimit="10" stroke-linejoin="round"/>
<path d="M315.625 290.911L313.718 213.074" stroke="#8FB7FF" stroke-width="2.70832" stroke-miterlimit="10" stroke-linejoin="round"/>
<path d="M645.098 242.137L618.703 283.935C615.919 288.389 611.037 291.101 605.77 291.101H551.382C546.114 291.115 541.232 288.389 538.448 283.935L512.325 242.137C509.227 237.184 509.227 230.917 512.311 225.978L538.705 184.18C541.503 179.712 546.371 177 551.624 177H606.027C611.294 177 616.176 179.712 618.96 184.152L645.083 225.978C648.181 230.917 648.181 237.198 645.098 242.137Z" fill="#266DF0" stroke="#8FB7FF" stroke-width="4" stroke-miterlimit="10"/>
<path d="M608.838 192.517C609.766 191.046 611.308 190.875 611.922 190.875C612.55 190.875 614.077 191.032 615.005 192.517L616.761 195.343V195.286L637.517 228.504C639.63 231.887 639.63 236.256 637.517 239.624L627.767 255.141L614.734 275.783C613.806 277.254 612.379 277.425 611.808 277.411C611.222 277.411 609.781 277.254 608.853 275.769L586.341 239.724C584.228 236.355 584.214 232.002 586.284 228.604L608.838 192.517Z" fill="#266DF0" stroke="#8FB7FF" stroke-width="2" stroke-miterlimit="10"/>
</g>
</g>
<defs>
<clipPath id="clip0_105_2055">
<rect width="708" height="360" fill="white"/>
</clipPath>
</defs>
</svg>
