<svg width="17" height="14" viewBox="0 0 17 14" fill="none" xmlns="http://www.w3.org/2000/svg">
<path fill-rule="evenodd" clip-rule="evenodd" d="M1.42316 5.6186C5.6446 3.78528 8.45487 2.5671 9.86604 1.97609C13.8824 0.299579 14.7267 0.0101081 15.2695 -0.00195312C15.3901 -0.00195312 15.6554 0.0221696 15.8364 0.166905C15.9811 0.287517 16.0173 0.444314 16.0414 0.564927C16.0655 0.685539 16.0897 0.938826 16.0655 1.13181C15.8484 3.42345 14.9077 8.98369 14.4252 11.5407C14.2202 12.6262 13.8221 12.988 13.4362 13.0242C12.5919 13.0966 11.9526 12.4694 11.1445 11.9387C9.86604 11.1065 9.15443 10.5878 7.91212 9.76767C6.47683 8.82689 7.40554 8.30826 8.22571 7.46397C8.44281 7.24687 12.1456 3.86971 12.218 3.56818C12.2301 3.532 12.2301 3.38726 12.1456 3.31489C12.0612 3.24253 11.9406 3.26665 11.8441 3.29077C11.7114 3.31489 9.68512 4.66576 5.74109 7.3313C5.16215 7.72932 4.64352 7.9223 4.17313 7.91024C3.65449 7.89818 2.66547 7.62077 1.91767 7.37954C1.01308 7.09007 0.289399 6.93327 0.349706 6.4267C0.38589 6.16135 0.747727 5.89601 1.42316 5.6186Z" fill="white"/>
</svg>
