<svg width="20" height="20" viewBox="0 0 20 20" fill="none" xmlns="http://www.w3.org/2000/svg">
<path fill-rule="evenodd" clip-rule="evenodd" d="M2.42328 9.61908C6.64472 7.78577 9.455 6.56758 10.8662 5.97658C14.8826 4.30007 15.7269 4.0106 16.2696 3.99854C16.3902 3.99854 16.6556 4.02266 16.8365 4.16739C16.9812 4.28801 17.0174 4.4448 17.0415 4.56542C17.0657 4.68603 17.0898 4.93931 17.0657 5.13229C16.8486 7.42393 15.9078 12.9842 15.4253 15.5412C15.2203 16.6267 14.8223 16.9885 14.4363 17.0247C13.592 17.0971 12.9528 16.4699 12.1447 15.9392C10.8662 15.107 10.1545 14.5883 8.91224 13.7682C7.47695 12.8274 8.40567 12.3087 9.22583 11.4645C9.44293 11.2474 13.1457 7.8702 13.2181 7.56867C13.2302 7.53249 13.2302 7.38775 13.1457 7.31538C13.0613 7.24302 12.9407 7.26714 12.8442 7.29126C12.7115 7.31538 10.6852 8.66624 6.74121 11.3318C6.16227 11.7298 5.64364 11.9228 5.17325 11.9107C4.65461 11.8987 3.66559 11.6213 2.91779 11.38C2.0132 11.0906 1.28952 10.9338 1.34983 10.4272C1.38601 10.1618 1.74785 9.89649 2.42328 9.61908Z" fill="white"/>
</svg>
